<svg width="36" height="34" viewBox="0 0 36 34" fill="none" xmlns="http://www.w3.org/2000/svg">
<path d="M27.705 23.8424L28.29 28.3191C28.44 29.4949 27.105 30.3165 26.04 29.7074L19.755 26.1799C19.065 26.1799 18.39 26.1374 17.73 26.0524C18.84 24.8199 19.5 23.2616 19.5 21.5757C19.5 17.5524 15.81 14.2941 11.25 14.2941C9.51002 14.2941 7.90502 14.7616 6.57002 15.5833C6.52502 15.2291 6.51001 14.8749 6.51001 14.5066C6.51001 8.06074 12.435 2.83325 19.755 2.83325C27.075 2.83325 33 8.06074 33 14.5066C33 18.3316 30.915 21.7174 27.705 23.8424Z" stroke="#638C47" stroke-width="1.5" stroke-linecap="round" stroke-linejoin="round"/>
<path d="M19.5 21.5758C19.5 23.2616 18.84 24.82 17.73 26.0525C16.245 27.7525 13.89 28.8433 11.25 28.8433L7.335 31.0391C6.675 31.4216 5.835 30.8975 5.925 30.175L6.3 27.3842C4.29 26.0667 3 23.9558 3 21.5758C3 19.0825 4.41001 16.8867 6.57001 15.5833C7.90501 14.7617 9.51 14.2942 11.25 14.2942C15.81 14.2942 19.5 17.5525 19.5 21.5758Z" stroke="#638C47" stroke-width="1.5" stroke-linecap="round" stroke-linejoin="round"/>
</svg>
